<?xml version="1.0" encoding="UTF-8"?> <!-- Generator: Adobe Illustrator 24.1.3, SVG Export Plug-In . SVG Version: 6.00 Build 0) --> <svg xmlns="http://www.w3.org/2000/svg" xmlns:xlink="http://www.w3.org/1999/xlink" version="1.1" id="Capa_1" x="0px" y="0px" viewBox="0 0 512 512" style="enable-background:new 0 0 512 512;" xml:space="preserve"> <style type="text/css"> .st0{fill:#FFFFFF;} </style> <g> <path class="st0" d="M495.3,394.8c11.1-23.4,16.7-48.6,16.7-74.8c0-93.6-74.3-170.3-167.3-174.8C323.7,69.7,254.8,17,176,17 C79,17,0,95.5,0,192c0,26.2,5.6,51.4,16.7,74.8L0.3,349c-2.1,10.5,7.1,19.7,17.6,17.7l83.3-16.5c20.9,9.9,43.1,15.4,66.2,16.5 c29.1,104.9,146.2,157.6,243.4,111.5c91.2,18,84.1,16.7,86.2,16.7c9.5,0,16.6-8.7,14.7-17.9L495.3,394.8z M110.1,321.2 c-3-1.5-6.4-2-9.7-1.4l-66.2,13.1l13-65.2c0.7-3.3,0.2-6.8-1.4-9.8C35.3,237.4,30,215.2,30,192c0-80,65.5-145,146-145 c62.9,0,118.3,40.9,137.7,99.4c-91.7,11.7-160.8,94.5-151.9,189.9C143.7,334.5,126.4,329.5,110.1,321.2L110.1,321.2z M464.8,395.7 l13,65.2l-66.2-13.1c-3.3-0.7-6.7-0.2-9.7,1.4C381.4,459.7,359.2,465,336,465c-80,0-145-65-145-145s65-145,145-145 c80.5,0,146,65,146,145c0,23.2-5.3,45.4-15.8,65.9C464.7,388.9,464.2,392.3,464.8,395.7z"></path> </g> </svg> 