<?xml version="1.0" encoding="UTF-8"?> <!-- Generator: Adobe Illustrator 24.1.3, SVG Export Plug-In . SVG Version: 6.00 Build 0) --> <svg xmlns="http://www.w3.org/2000/svg" xmlns:xlink="http://www.w3.org/1999/xlink" version="1.1" id="_x31_px" x="0px" y="0px" viewBox="0 0 512 512" style="enable-background:new 0 0 512 512;" xml:space="preserve"> <style type="text/css"> .st0{fill:#FFFFFF;} </style> <path class="st0" d="M117.3,277.3c-2.8,0-5.5-1.1-7.6-3.1L3.1,167.6c-4.2-4.2-4.2-10.9,0-15.1L109.8,45.8c3.1-3.1,7.6-4,11.6-2.3 c4,1.6,6.6,5.5,6.6,9.9v53.3h213.3c11.8,0,21.3,9.6,21.3,21.3v64c0,11.8-9.6,21.3-21.3,21.3H128v53.3c0,4.3-2.6,8.2-6.6,9.9 C120.1,277.1,118.7,277.3,117.3,277.3z M25.7,160l80.9,80.9v-38.3c0-5.9,4.8-10.7,10.7-10.7h224v-64h-224c-5.9,0-10.7-4.8-10.7-10.7 V79.1L25.7,160z"></path> <path class="st0" d="M394.7,469.3c-1.4,0-2.8-0.3-4.1-0.8c-4-1.6-6.6-5.5-6.6-9.9v-53.3H170.7c-11.8,0-21.3-9.6-21.3-21.3v-64 c0-11.8,9.6-21.3,21.3-21.3H384v-53.3c0-4.3,2.6-8.2,6.6-9.9c4-1.6,8.6-0.7,11.6,2.3l106.7,106.7c4.2,4.2,4.2,10.9,0,15.1 L402.2,466.2C400.2,468.2,397.4,469.3,394.7,469.3z M170.7,320v64h224c5.9,0,10.7,4.8,10.7,10.7v38.3l80.9-80.9l-80.9-80.9v38.3 c0,5.9-4.8,10.7-10.7,10.7H170.7z"></path> </svg> 