<?xml version="1.0" encoding="UTF-8"?> <!-- Generator: Adobe Illustrator 24.1.3, SVG Export Plug-In . SVG Version: 6.00 Build 0) --> <svg xmlns="http://www.w3.org/2000/svg" xmlns:xlink="http://www.w3.org/1999/xlink" version="1.1" id="Layer_1" x="0px" y="0px" viewBox="0 0 512 512" style="enable-background:new 0 0 512 512;" xml:space="preserve"> <style type="text/css"> .st0{fill:#FFFFFF;} </style> <g> <path class="st0" d="M338,325.6c-12.6-27.3-38-46.3-67-51.2V15c0-8.3-6.7-15-15-15s-15,6.7-15,15v259.4c-29,4.9-54.4,23.9-67,51.2 c-28.3,61.2-76.2,165.1-76.2,165.1c-2.1,4.6-1.8,10.1,1,14.4s7.5,6.9,12.6,6.9h36.4c20,0,38.5-8,52-21.6 c23.4,23.7,52,21.6,56.4,21.6c4.2,0,32.7,2.1,56.1-21.6c13.5,13.7,32,21.6,52,21.6h36.4c5.1,0,9.9-2.6,12.6-6.9s3.1-9.7,1-14.4 C414.2,490.7,366.3,386.8,338,325.6L338,325.6z M201.2,338.1c9.7-21.1,30.9-34.8,54.1-35c0.2,0,0.5,0,0.7,0c0.2,0,0.5,0,0.7,0 c23.2,0.3,44.4,14,54.1,35c2.2,4.9,4.6,10,7.1,15.3H194.2C196.6,348.1,199,343,201.2,338.1L201.2,338.1z M364.2,482 c-16.4,0-31.2-9.1-38.6-23.8c-2.5-5.1-7.7-8.3-13.4-8.3c-5.7,0-10.9,3.2-13.4,8.3c-12.5,25-37.1,23.8-42.9,23.8 c-7,0-30.6,0.3-42.7-23.8c-2.5-5.1-7.7-8.3-13.4-8.3s-10.9,3.2-13.4,8.3c-7.4,14.7-22.1,23.8-38.6,23.8h-12.9 c10.8-23.3,28.7-62.2,45.5-98.5h151.4c16.8,36.3,34.7,75.2,45.5,98.5H364.2z"></path> <path class="st0" d="M501.4,56.9c-21.7-7.3-39-24.6-46.3-46.3C453.3,4.5,447.5,0,440.8,0c-6.7,0-12.4,4.4-14.3,10.6 c-7.3,21.7-24.6,39-46.3,46.3c-6.2,1.9-10.6,7.6-10.6,14.4c0,6.7,4.4,12.4,10.6,14.3c21.7,7.3,39,24.6,46.3,46.3 c1.9,6.2,7.6,10.6,14.4,10.6c6.7,0,12.4-4.4,14.3-10.6c7.3-21.7,24.6-39,46.3-46.3c6.2-1.9,10.6-7.6,10.6-14.4 C512,64.5,507.6,58.8,501.4,56.9L501.4,56.9z M440.8,95c-6.6-9.1-14.6-17.2-23.7-23.7c9.1-6.6,17.2-14.6,23.7-23.7 c6.6,9.1,14.6,17.2,23.7,23.7C455.4,77.8,447.4,85.8,440.8,95z"></path> <path class="st0" d="M79.3,54.1h9.1v9.1c0,8.3,6.7,15,15,15s15-6.7,15-15v-9.1h9.1c8.3,0,15-6.7,15-15s-6.7-15-15-15h-9.1V15 c0-8.3-6.7-15-15-15s-15,6.7-15,15v9.1h-9.1c-8.3,0-15,6.7-15,15S71,54.1,79.3,54.1z"></path> <path class="st0" d="M432.7,265.1h-9.1V256c0-8.3-6.7-15-15-15s-15,6.7-15,15v9.1h-9.1c-8.3,0-15,6.7-15,15s6.7,15,15,15h9.1v9.1 c0,8.3,6.7,15,15,15s15-6.7,15-15v-9.1h9.1c8.3,0,15-6.7,15-15S441,265.1,432.7,265.1z"></path> <path class="st0" d="M131.8,262.3c6.2-1.9,10.6-7.6,10.6-14.4c0-6.7-4.4-12.4-10.6-14.3c-21.7-7.3-39-24.6-46.3-46.3 c-1.9-6.2-7.6-10.6-14.4-10.6c-6.7,0-12.4,4.4-14.3,10.6c-7.3,21.7-24.6,39-46.3,46.3C4.5,235.5,0,241.2,0,248 c0,6.7,4.4,12.4,10.6,14.3c21.7,7.3,39,24.6,46.3,46.3c1.9,6.2,7.6,10.6,14.4,10.6c6.7,0,12.4-4.4,14.3-10.6 C92.9,287,110.2,269.7,131.8,262.3L131.8,262.3z M71.2,271.7c-6.6-9.1-14.6-17.2-23.7-23.7c9.1-6.6,17.2-14.6,23.7-23.7 c6.6,9.1,14.6,17.2,23.7,23.7C85.8,254.5,77.8,262.6,71.2,271.7z"></path> </g> </svg> 