<?xml version="1.0" encoding="UTF-8"?> <!-- Generator: Adobe Illustrator 24.1.3, SVG Export Plug-In . SVG Version: 6.00 Build 0) --> <svg xmlns="http://www.w3.org/2000/svg" xmlns:xlink="http://www.w3.org/1999/xlink" version="1.1" id="Capa_1" x="0px" y="0px" viewBox="0 0 512 512" style="enable-background:new 0 0 512 512;" xml:space="preserve"> <style type="text/css"> .st0{fill:#FFFFFF;} </style> <g> <g> <path class="st0" d="M135,0c-33.4,0-60,28-60,61c0,33.1,26.9,60,60,60s60-26.9,60-60C195,28,168.3,0,135,0z M135,91 c-16.5,0-30-13.5-30-30c0-16.8,13.7-31,30-31s30,14.2,30,31C165,77.5,151.5,91,135,91z"></path> </g> </g> <g> <g> <path class="st0" d="M467,0H255c-24.8,0-45,20.2-45,45v102.4l-13.2-13.2C188.3,125.7,177,121,165,121h-30c-6.4,0-53.6,0-60,0 c-41.4,0-75,33.6-75,75c0,8.5,0,77.7,0,90c0,24.8,20.2,45,45,45c5.3,0,10.3-0.9,15-2.6V467c0,24.8,20.2,45,45,45 c11.5,0,22-4.3,30-11.5c8,7.1,18.5,11.5,30,11.5c24.8,0,45-20.2,45-45V268.4c11.5,4,24.2,3.3,35.1-2.2l50.5-25.3H467 c24.8,0,45-20.2,45-45V45C512,20.2,491.8,0,467,0z M291.7,209.4l-60,30c-5.6,2.8-12.6,1.9-17.3-2.8l-8.8-8.8 c-9.3-9.3-25.6-3-25.6,10.6c0,0,0,0,0,0V467c0,8.3-6.7,15-15,15s-15-6.7-15-15V316c0-8.3-6.7-15-15-15s-15,6.7-15,15v151 c0,8.3-6.7,15-15,15s-15-6.7-15-15V286c0-11.3,0-80.8,0-90c0-8.3-6.7-15-15-15s-15,6.7-15,15c0,8.5,0,77.7,0,90 c0,8.3-6.7,15-15,15s-15-6.7-15-15c0-11.3,0-80.8,0-90c0-24.8,20.2-45,45-45c11.3,0,80.8,0,90,0c4,0,7.8,1.6,10.6,4.4l44.7,44.7 c4.6,4.6,11.5,5.7,17.3,2.8l40.7-20.3c7.4-3.7,16.4-0.7,20.1,6.7C302.1,196.7,299.1,205.7,291.7,209.4z M482,196 c0,8.3-6.7,15-15,15H327.4c0.1-0.3,0.2-0.5,0.3-0.8c2.2-6.5,2.8-13.2,2-19.8l82-41c7.4-3.7,10.4-12.7,6.7-20.1 s-12.7-10.4-20.1-6.7l-82,41c-13.1-12.7-33.6-16.7-51.4-7.8L240,168.2V45c0-8.3,6.7-15,15-15h212c8.3,0,15,6.7,15,15V196z"></path> </g> </g> </svg> 