<?xml version="1.0" encoding="UTF-8"?> <!-- Generator: Adobe Illustrator 24.1.3, SVG Export Plug-In . SVG Version: 6.00 Build 0) --> <svg xmlns="http://www.w3.org/2000/svg" xmlns:xlink="http://www.w3.org/1999/xlink" version="1.1" id="Calque_1" x="0px" y="0px" viewBox="0 0 511 511" style="enable-background:new 0 0 511 511;" xml:space="preserve"> <style type="text/css"> .st0{fill:#FFFFFF;} </style> <g id="surface1"> <path class="st0" d="M510.8,226.8L510.8,226.8c-0.8-8-5-15.3-11.3-20.2L470.4,184l10.9-36.1c2.3-7.7,1.4-16.1-2.7-23.1 c-4-7-10.8-12-18.7-13.8l-36.6-8.5l-4.7-37.3c-1-8-5.3-15.3-11.8-20c-6.5-4.7-14.8-6.6-22.7-5.1l-36.9,7.1L328,15.1 c-7.7-12.8-24-17.6-37.8-11.3c-1,0.4-1.9,1-2.7,1.6l-32,22.3L224.6,6.2C218,1.6,209.7,0,201.9,1.6c-7.9,1.7-14.8,6.6-18.9,13.5 l-19.4,32.2l-36.9-7.1c-7.9-1.5-16.2,0.3-22.7,5.1c-6.5,4.7-10.8,12-11.8,20l-4.7,37.3l-38.7,9l-1.8,0.6l-0.7,0.3 c-14.1,6.1-21.1,21.1-16.7,35.5L40.5,184l-30.3,23.6l-1.8,1.5l-0.5,0.5C-2.3,220.8-2.7,237.6,7,248.9l23.7,28.4l-19.2,34.9 l-0.8,1.7l-0.2,0.7c-4.8,14.3,1.7,29.9,15.2,36.2l34,16l-3.2,37.4c-0.7,8,2,16,7.4,22c5.4,6,13.1,9.5,21.1,9.7l37.6,0.7l12.3,35.5 c2.6,7.6,8.4,13.8,15.7,17.1c7.3,3.3,15.8,3.4,23.2,0.2l34.6-14.6l27.2,29l1.4,1.3l0.5,0.4c5.4,4,11.6,5.9,17.9,5.9 c7.9,0,15.6-3.1,21.3-9.2l25.7-27.4l34.6,14.6c7.4,3.1,15.9,3,23.2-0.2c7.4-3.3,13.1-9.5,15.7-17.1l12.3-35.5l39.7-0.8l1.9-0.2 l0.7-0.1c14.8-3,25-16.5,23.8-31.3l-3.2-37.4l34-16c7.3-3.4,12.9-9.8,15.4-17.4c2.5-7.6,1.7-16.1-2.2-23.1l-18.2-33l23.8-28.4 C509.2,242.8,511.7,234.8,510.8,226.8z M451.9,264.4c-4.7,5.6-5.5,13.5-2,19.9l21.9,39.7l-41,19.3c-6.7,3.1-10.7,10.1-10.1,17.5 l3.8,45.2l-45.3,0.9c-7.3,0.1-13.9,4.9-16.3,11.9L348,461.6L306.2,444c-6.8-2.9-14.7-1.2-19.7,4.2l-31,33.1l-31-33.1 c-3.4-3.6-8.1-5.6-12.9-5.6c-2.3,0-4.6,0.4-6.8,1.4l-41.8,17.6l-14.9-42.8c-2.4-7-9-11.7-16.3-11.9L86.4,406l3.8-45.2 c0.6-7.3-3.4-14.3-10.1-17.5l-41-19.3L61,284.4c3.5-6.4,2.7-14.4-2-19.9L30.2,230l35.3-27.5c5.8-4.5,8.2-12.1,6.1-19.1L58.5,140 l44.2-10.3c7.2-1.7,12.6-7.7,13.5-15l5.6-45l44.5,8.5c7.2,1.4,14.6-1.9,18.4-8.2l23.4-38.8l37.2,25.9c6,4.2,14.1,4.2,20.2,0 l37.2-25.9l23.5,38.8c3.8,6.3,11.2,9.6,18.4,8.2l44.5-8.5l5.6,45c0.9,7.3,6.3,13.3,13.5,15l44.2,10.3l-13.2,43.4 c-2.1,7,0.3,14.6,6.1,19.1l35.3,27.5L451.9,264.4z"></path> <path class="st0" d="M257.1,129c-70.2,0-127.2,57.1-127.2,127.2c0,70.2,57.1,127.2,127.2,127.2c70.2,0,127.3-57.1,127.3-127.2 C384.3,186.1,327.2,129,257.1,129z M257.1,353.6c-53.6,0-97.3-43.6-97.3-97.3c0-53.6,43.6-97.3,97.3-97.3 c53.6,0,97.3,43.6,97.3,97.3C354.3,309.9,310.7,353.6,257.1,353.6z"></path> <path class="st0" d="M293.6,216.8l-59.1,59.1l-16-16c-5.9-5.8-15.3-5.8-21.2,0c-5.9,5.9-5.9,15.3,0,21.2l26.6,26.6 c2.9,2.9,6.8,4.4,10.6,4.4s7.7-1.5,10.6-4.4l69.7-69.7c5.8-5.9,5.8-15.3,0-21.2C309,210.9,299.5,210.9,293.6,216.8z"></path> </g> </svg> 