<?xml version="1.0" encoding="UTF-8"?> <!-- Generator: Adobe Illustrator 25.2.1, SVG Export Plug-In . SVG Version: 6.00 Build 0) --> <svg xmlns="http://www.w3.org/2000/svg" xmlns:xlink="http://www.w3.org/1999/xlink" version="1.1" id="Capa_1" x="0px" y="0px" viewBox="0 0 512 512" style="enable-background:new 0 0 512 512;" xml:space="preserve"> <style type="text/css"> .st0{fill:#FFFFFF;} </style> <g> <path class="st0" d="M391,496c0-24.9-20.1-45-45-45H166c-24.9,0-45,20.1-45,45v16h270V496z"></path> <path class="st0" d="M482,121V91H298.2c-4.5-12.7-14.5-22.7-27.2-27.2V0h-30v63.8c-12.7,4.5-22.7,14.5-27.2,27.2H30v30h37.5L0,286 c0,41.4,33.6,75,75,75h30c41.4,0,75-33.6,75-75l-67.8-165h101.6c4.5,12.7,14.5,22.7,27.2,27.2v214.4c-29.3,6-52.5,29-58.5,58.4h147 c-6-29.3-29.2-52.4-58.5-58.4V148.2c12.7-4.5,22.7-14.5,27.2-27.2h101.3L332,286c0,41.4,33.6,75,75,75h30c41.4,0,75-33.6,75-75 l-67.8-165H482z M142.5,271h-105L90,145L142.5,271z M474.5,271h-105L422,145L474.5,271z"></path> </g> </svg> 