<?xml version="1.0" encoding="UTF-8"?> <!-- Generator: Adobe Illustrator 24.1.2, SVG Export Plug-In . SVG Version: 6.00 Build 0) --> <svg xmlns="http://www.w3.org/2000/svg" xmlns:xlink="http://www.w3.org/1999/xlink" version="1.1" id="Layer_1" x="0px" y="0px" viewBox="0 0 587.4 116.3" style="enable-background:new 0 0 587.4 116.3;" xml:space="preserve"> <style type="text/css"> .st0{fill:#FFFFFF;} .st1{fill:#A67A4D;} </style> <path class="st0" d="M154.4,47.9h28.3c7.2,0,9,0.2,11.3,1.4c3.7,1.8,5.1,5.2,5.1,12.2s-1.3,10.7-4.3,12.6c-2.2,1.3-4.7,1.7-11.1,1.7 h-18.1V85h-11.2V47.9z M182,66.9c4.6,0,5.9-1,5.9-4.5c0-4.4-1.1-5.4-5.9-5.4h-16.4v9.9H182z"></path> <path class="st0" d="M207.1,47.9h31.9c6.5,0,9.4,0.6,11.5,2.3s3.2,4.9,3.2,9.9c0,6.9-1.7,9.6-6.4,10.7c4.6,0.8,6,2.7,5.9,8.3V85 h-11.4v-4.6c-0.1-4-1.2-4.8-6.2-4.7h-17.3V85h-11.2V47.9z M235.9,66.6c5.4,0,6.5-0.7,6.5-4.3c0-2.4-0.2-3.4-1-4.2s-1.8-1-5.2-1h-18 v9.5H235.9z"></path> <path class="st0" d="M303,48.1c5.7,1.1,8.5,4,9.3,9.9c0.3,3,0.4,6,0.3,9c0,8.9-0.9,12.5-4.1,15.2c-2.2,1.9-5.3,2.8-10.7,3 c-2,0.1-6.9,0.2-10.5,0.2c-8.8,0-13.3-0.2-15.5-0.6c-4.1-0.7-6.5-2.3-7.9-5s-1.8-5.4-1.8-13.5c0-6.2,0.1-7.8,0.8-10.3 c1.1-3.9,3.2-6,7.4-7.3c3.1-0.9,6.5-1.1,16.3-1.1C297.1,47.6,300.4,47.7,303,48.1z M275.4,57.9c-1.5,1.2-1.9,3-1.9,8.3 s0.4,7.4,1.8,8.6s3.3,1.4,11.8,1.4c9.7,0,11.7-0.3,13-2.1c1-1.3,1.3-3.2,1.3-8.2c0-9.3-0.2-9.4-14-9.4 C279.1,56.6,276.8,56.9,275.4,57.9z"></path> <path class="st0" d="M321.9,47.9h28.8c8.2,0,12.3,1.5,14.5,5.4c1.7,2.7,2.4,7.1,2.4,13.1s-0.8,10.4-2.4,13.2 c-2.2,3.9-6.3,5.4-14.5,5.4h-28.8V47.9z M351,81.3c5.2,0,8.6-1.2,10.1-3.6c1.3-2.1,1.9-5.6,1.9-11c0-5.7-0.7-9.6-2-11.6 c-1.5-2.3-4.7-3.3-10.3-3.3h-24.4v29.6L351,81.3z"></path> <path class="st0" d="M376.5,47.9h36.9v3.7h-32.4v12.4h31.3v3.5h-31.3v13.7h32.7V85h-37.2V47.9z"></path> <path class="st0" d="M424.8,73.4v1c0,3.7,0.8,5.2,3.2,6c2.2,0.7,6.3,1.1,12.9,1.1c14.5,0,17.1-1.1,17.1-7.3c0-3.1-0.9-4.5-3.4-5.2 s-2.7-0.7-19.2-0.8c-6.7-0.1-9.6-0.6-11.9-2.1s-3.1-3.5-3.1-7.2c0-5.5,2-8.7,6.4-10c3.2-0.9,8-1.4,15.7-1.4c8.5,0,12.9,0.6,15.5,2.2 c2.7,1.7,3.5,3.6,3.7,8.8h-4.3c-0.1-2.9-0.6-4.3-1.8-5.2c-1.7-1.3-5.5-1.9-13-1.9c-14.6,0-17.4,1.2-17.4,7.1c0,2.5,0.7,4,2.3,4.7 c1.9,0.9,3.6,1,14.1,1c11.8,0.1,14.3,0.3,17,1.6c3,1.4,4.2,3.9,4.2,8.5c0,5.1-1.7,8.2-5.4,9.5c-2.7,1-6.9,1.4-15.5,1.4 c-9,0-13.2-0.4-16.2-1.4c-3.3-1.2-5.2-4-5.2-8v-2.5L424.8,73.4z"></path> <path class="st0" d="M471.5,47.9h4.5v37h-4.4L471.5,47.9z"></path> <path class="st0" d="M531.8,66.7c0.1,2.8,0,5.6-0.2,8.4c-0.5,4.8-2.1,7.7-5.3,9c-2.4,1-5.8,1.3-17,1.3c-15.4,0-18.3-0.4-21.1-3.4 c-2.4-2.5-2.9-5.4-2.9-15.5s0.6-13,2.9-15.5c2.9-3,5.5-3.4,22.4-3.4c11.4,0,14.4,0.4,17,2.2s3.6,4.2,3.8,9H527 c-0.1-3.5-0.3-4.5-1.4-5.4c-1.8-1.7-3.4-2-13.5-2c-14.6,0-17.8,0.3-19.7,1.7c-2.1,1.5-2.6,4-2.6,13.4c0,8.4,0.4,11.2,1.9,12.7 c1.8,1.9,4.5,2.3,15.6,2.3c14.4,0,16.4-0.2,18.3-2.3c1.4-1.5,1.7-2.9,1.8-8.7h-19.8v-3.7L531.8,66.7z"></path> <path class="st0" d="M540.8,47.9h7.2l35,33.9V47.9h4.4v37h-7.2l-35-33.9v33.9h-4.4V47.9z"></path> <path class="st1" d="M164.9,107.1c0,0.2-0.1,0.4-0.2,0.5c-0.1,0.1-0.3,0.2-0.5,0.2c-0.2,0-0.3,0-0.4-0.1c-0.1-0.1-0.2-0.2-0.3-0.4 l-0.8-2.1h-5.4l-0.9,2.1c-0.1,0.1-0.2,0.3-0.3,0.4c-0.1,0.1-0.3,0.1-0.4,0.1c-0.2,0-0.4-0.1-0.6-0.2c-0.1-0.1-0.2-0.3-0.2-0.5 c0-0.1,0-0.2,0.1-0.3l4.2-10c0.1-0.3,0.4-0.5,0.7-0.5c0.3,0,0.6,0.2,0.7,0.5l4.2,10.1C164.9,106.9,164.9,107,164.9,107.1z M157.8,104h4.3l-2.1-5.3L157.8,104z"></path> <path class="st1" d="M181,96.4c0.1,0.1,0.2,0.4,0.2,0.6v10.1c0,0.2-0.1,0.4-0.2,0.5c-0.1,0.1-0.3,0.2-0.5,0.2 c-0.2,0-0.4-0.1-0.5-0.2c-0.1-0.1-0.2-0.3-0.2-0.5v-7.4l-3.6,7.4c-0.1,0.2-0.4,0.4-0.7,0.4c-0.3,0-0.6-0.2-0.7-0.5l-3.6-7.2v7.3 c0,0.2-0.1,0.4-0.2,0.5c-0.3,0.3-0.8,0.3-1.1,0c0,0,0,0,0,0c-0.1-0.1-0.2-0.3-0.2-0.5V97c0-0.2,0.1-0.4,0.2-0.6 c0.2-0.1,0.4-0.2,0.6-0.2c0.3,0,0.6,0.2,0.7,0.4l4.4,8.9l4.3-8.9c0.1-0.3,0.4-0.4,0.7-0.4C180.7,96.2,180.9,96.3,181,96.4z"></path> <path class="st1" d="M187.5,107.6c-0.1-0.1-0.2-0.3-0.2-0.5V97c0-0.2,0.1-0.4,0.2-0.6c0.1-0.1,0.3-0.2,0.5-0.2h6.8 c0.2,0,0.4,0.1,0.5,0.2c0.1,0.1,0.2,0.3,0.2,0.5c0,0.2-0.1,0.4-0.2,0.5c-0.1,0.1-0.3,0.2-0.5,0.2h-6v3.6h4.3c0.2,0,0.4,0.1,0.5,0.2 c0.1,0.1,0.2,0.3,0.2,0.5c0,0.2-0.1,0.4-0.2,0.5c-0.2,0.1-0.3,0.2-0.5,0.2h-4.3v3.7h6c0.2,0,0.4,0.1,0.5,0.2 c0.1,0.1,0.2,0.3,0.2,0.5c0,0.2-0.1,0.4-0.2,0.5c-0.1,0.1-0.3,0.2-0.5,0.2H188C187.8,107.9,187.6,107.8,187.5,107.6z M191.1,94.7 c-0.1-0.1-0.2-0.3-0.2-0.5c0-0.2,0.1-0.4,0.2-0.5l1.5-1.5c0.1-0.1,0.3-0.2,0.5-0.2c0.2,0,0.4,0.1,0.5,0.2c0.1,0.2,0.2,0.4,0.2,0.6 c0,0.2-0.1,0.4-0.2,0.5l-1.5,1.5c-0.1,0.1-0.3,0.2-0.5,0.2C191.4,94.9,191.2,94.8,191.1,94.7z"></path> <path class="st1" d="M200.9,107.7c-0.2-0.1-0.2-0.4-0.2-0.6V97c0-0.2,0.1-0.4,0.2-0.6c0.1-0.1,0.3-0.2,0.5-0.2c0.1,0,0.2,0,0.3,0.1 c0.1,0.1,0.2,0.1,0.3,0.2l6.5,8.7V97c0-0.2,0.1-0.4,0.2-0.6c0.1-0.1,0.4-0.2,0.6-0.2c0.2,0,0.4,0.1,0.5,0.2c0.2,0.1,0.2,0.4,0.2,0.6 v10.1c0,0.2-0.1,0.4-0.2,0.6c-0.1,0.1-0.3,0.2-0.5,0.2c-0.1,0-0.2,0-0.3-0.1c-0.1,0-0.2-0.1-0.3-0.2l-6.5-8.7v8.1 c0,0.4-0.4,0.8-0.8,0.8C201.3,107.9,201.1,107.8,200.9,107.7L200.9,107.7z"></path> <path class="st1" d="M224.9,107.1c0,0.2-0.1,0.4-0.2,0.5c-0.1,0.1-0.3,0.2-0.5,0.2c-0.2,0-0.3,0-0.4-0.1c-0.1-0.1-0.2-0.2-0.3-0.4 l-0.8-2.1h-5.4l-0.9,2.1c-0.1,0.1-0.2,0.3-0.3,0.4c-0.1,0.1-0.3,0.1-0.4,0.1c-0.2,0-0.4-0.1-0.5-0.2c-0.1-0.1-0.2-0.3-0.2-0.5 c0-0.1,0-0.2,0.1-0.3l4.2-10c0.1-0.3,0.4-0.5,0.7-0.5c0.3,0,0.6,0.2,0.7,0.5l4.2,10.1C224.8,106.9,224.9,107,224.9,107.1z M217.7,104h4.3l-2.1-5.3L217.7,104z"></path> <path class="st1" d="M238.2,102c0.1,0.2,0.2,0.4,0.2,0.6v3.6c0,0.2-0.1,0.4-0.2,0.6c-1,0.9-2.3,1.3-3.7,1.3c-2.1,0-4-1.1-5-3 c-0.5-0.9-0.8-2-0.8-3c0-1,0.2-2.1,0.8-3c0.5-0.9,1.2-1.6,2.1-2.2c0.9-0.5,1.9-0.8,2.9-0.8c0.7,0,1.4,0.1,2,0.3 c0.6,0.2,1.2,0.6,1.7,1c0.1,0.1,0.2,0.2,0.2,0.3c0,0.1,0.1,0.2,0.1,0.3c0,0.2-0.1,0.4-0.2,0.5c-0.1,0.1-0.3,0.2-0.5,0.2 c-0.2,0-0.4-0.1-0.5-0.2c-0.4-0.3-0.8-0.6-1.2-0.8c-0.5-0.2-1-0.3-1.5-0.2c-0.8,0-1.5,0.2-2.1,0.6c-0.7,0.4-1.2,1-1.5,1.7 c-0.8,1.4-0.8,3.2,0,4.6c0.4,0.7,0.9,1.2,1.5,1.7c0.6,0.4,1.4,0.6,2.1,0.6c0.9,0,1.7-0.3,2.4-0.8v-2.7h-2.1c-0.2,0-0.4-0.1-0.6-0.2 c-0.3-0.2-0.3-0.7-0.1-0.9c0,0,0,0,0.1-0.1c0.2-0.1,0.4-0.2,0.6-0.2h2.8C237.9,101.8,238,101.9,238.2,102z"></path> <path class="st1" d="M244.1,107.6c-0.1-0.1-0.2-0.3-0.2-0.5V97c0-0.2,0.1-0.4,0.2-0.6c0.1-0.1,0.4-0.2,0.6-0.2h6.8 c0.2,0,0.4,0.1,0.5,0.2c0.1,0.1,0.2,0.3,0.2,0.5c0,0.2-0.1,0.4-0.2,0.5c-0.1,0.1-0.3,0.2-0.5,0.2h-6v3.6h4.3c0.2,0,0.4,0.1,0.5,0.2 c0.1,0.1,0.2,0.3,0.2,0.5c0,0.2-0.1,0.4-0.2,0.5c-0.1,0.1-0.3,0.2-0.5,0.2h-4.3v3.7h6c0.2,0,0.4,0.1,0.5,0.2 c0.1,0.1,0.2,0.3,0.2,0.5c0,0.2-0.1,0.4-0.2,0.5c-0.1,0.1-0.3,0.2-0.5,0.2h-6.8C244.4,107.9,244.2,107.8,244.1,107.6z"></path> <path class="st1" d="M268.8,96.4c0.1,0.1,0.2,0.4,0.2,0.6v10.1c0,0.2-0.1,0.4-0.2,0.5c-0.1,0.1-0.3,0.2-0.5,0.2 c-0.2,0-0.4-0.1-0.6-0.2c-0.1-0.1-0.2-0.3-0.2-0.5v-7.4l-3.6,7.4c-0.1,0.2-0.4,0.4-0.7,0.4c-0.3,0-0.6-0.2-0.7-0.5l-3.6-7.2v7.3 c0,0.4-0.4,0.8-0.8,0.8c-0.2,0-0.4-0.1-0.5-0.2c-0.1-0.1-0.2-0.3-0.2-0.5V97c0-0.2,0.1-0.4,0.2-0.6c0.3-0.3,0.8-0.3,1.1,0 c0,0.1,0.1,0.1,0.1,0.2l4.4,8.9l4.3-8.9c0.1-0.3,0.4-0.4,0.7-0.4C268.4,96.2,268.6,96.3,268.8,96.4z"></path> <path class="st1" d="M275.2,107.6c-0.1-0.1-0.2-0.3-0.2-0.5V97c0-0.2,0.1-0.4,0.2-0.6c0.1-0.1,0.4-0.2,0.6-0.2h6.8 c0.2,0,0.4,0.1,0.5,0.2c0.1,0.1,0.2,0.3,0.2,0.5c0,0.2-0.1,0.4-0.2,0.5c-0.1,0.1-0.3,0.2-0.5,0.2h-6v3.6h4.3c0.2,0,0.4,0.1,0.5,0.2 c0.1,0.1,0.2,0.3,0.2,0.5c0,0.2-0.1,0.4-0.2,0.5c-0.1,0.1-0.3,0.2-0.5,0.2h-4.3v3.7h6c0.2,0,0.4,0.1,0.5,0.2 c0.1,0.1,0.2,0.3,0.2,0.5c0,0.2-0.1,0.4-0.2,0.5c-0.1,0.1-0.3,0.2-0.5,0.2h-6.8C275.5,107.9,275.3,107.8,275.2,107.6z"></path> <path class="st1" d="M288.6,107.7c-0.1-0.1-0.2-0.4-0.2-0.6V97c0-0.2,0.1-0.4,0.2-0.6c0.1-0.1,0.3-0.2,0.5-0.2c0.1,0,0.2,0,0.3,0.1 c0.1,0.1,0.2,0.1,0.3,0.2l6.5,8.7V97c0-0.2,0.1-0.4,0.2-0.6c0.3-0.3,0.8-0.3,1.1,0c0.1,0.2,0.2,0.4,0.2,0.6v10.1 c0,0.2-0.1,0.4-0.2,0.6c-0.1,0.1-0.3,0.2-0.5,0.2c-0.1,0-0.2,0-0.3-0.1c-0.1,0-0.2-0.1-0.3-0.2l-6.5-8.7v8.1c0,0.4-0.4,0.8-0.8,0.8 C288.9,107.9,288.8,107.8,288.6,107.7L288.6,107.7z"></path> <path class="st1" d="M311.7,96.4c0.1,0.1,0.2,0.3,0.2,0.5c0,0.4-0.3,0.7-0.7,0.7l0,0H308v9.5c0,0.4-0.4,0.8-0.8,0.8 c-0.4,0-0.8-0.3-0.8-0.8v-9.5h-3.2c-0.2,0-0.4-0.1-0.5-0.2c-0.1-0.1-0.2-0.3-0.2-0.5c0-0.2,0.1-0.4,0.2-0.5c0.1-0.1,0.3-0.2,0.5-0.2 h8C311.4,96.2,311.6,96.2,311.7,96.4z"></path> <path class="st1" d="M324.2,107.6c-0.1-0.1-0.2-0.3-0.2-0.5V97c0-0.4,0.3-0.8,0.8-0.8c0,0,0,0,0,0h6.8c0.2,0,0.4,0.1,0.5,0.2 c0.1,0.1,0.2,0.3,0.2,0.5c0,0.2-0.1,0.4-0.2,0.5c-0.1,0.1-0.3,0.2-0.5,0.2h-6v3.6h4.3c0.2,0,0.4,0.1,0.5,0.2 c0.1,0.1,0.2,0.3,0.2,0.5c0,0.2-0.1,0.4-0.2,0.5c-0.2,0.1-0.3,0.2-0.5,0.2h-4.3v3.7h6c0.2,0,0.4,0.1,0.5,0.2 c0.1,0.1,0.2,0.3,0.2,0.5c0,0.2-0.1,0.4-0.2,0.5c-0.1,0.1-0.3,0.2-0.5,0.2h-6.8C324.6,107.9,324.4,107.8,324.2,107.6z"></path> <path class="st1" d="M345.8,106.6c0.1,0.1,0.2,0.3,0.2,0.5c0,0.2-0.1,0.4-0.2,0.5c-0.1,0.2-0.3,0.2-0.5,0.2c-0.2,0-0.5-0.1-0.6-0.3 l-3.2-4.5l-3.5,4.5c-0.1,0.1-0.3,0.2-0.5,0.2c-0.2,0-0.4-0.1-0.5-0.2c-0.1-0.1-0.2-0.3-0.2-0.5c0-0.2,0.1-0.4,0.2-0.5l3.5-4.6 l-3.3-4.5c-0.1-0.1-0.1-0.3-0.1-0.5c0-0.2,0.1-0.4,0.2-0.5c0.1-0.1,0.3-0.2,0.5-0.2c0.2,0,0.4,0.1,0.6,0.2l3.2,4.5l3.3-4.5 c0.1-0.1,0.4-0.2,0.6-0.2c0.2,0,0.4,0.1,0.5,0.2c0.1,0.1,0.2,0.3,0.2,0.5c0,0.2-0.1,0.4-0.2,0.5l-3.4,4.5L345.8,106.6z"></path> <path class="st1" d="M359.1,96.4c0.1,0.1,0.2,0.3,0.2,0.5c0,0.4-0.3,0.7-0.7,0.7l0,0h-3.2v9.5c0,0.4-0.4,0.8-0.8,0.8 c-0.4,0-0.8-0.3-0.8-0.8v-9.5h-3.2c-0.2,0-0.4-0.1-0.5-0.2c-0.1-0.1-0.2-0.3-0.2-0.5c0-0.4,0.3-0.7,0.7-0.7c0,0,0,0,0.1,0h8 C358.8,96.2,359,96.2,359.1,96.4z"></path> <path class="st1" d="M364.2,107.6c-0.1-0.1-0.2-0.3-0.2-0.5V97c0-0.4,0.3-0.8,0.8-0.8c0,0,0,0,0,0h6.8c0.2,0,0.4,0.1,0.5,0.2 c0.1,0.1,0.2,0.3,0.2,0.5c0,0.2-0.1,0.4-0.2,0.5c-0.1,0.1-0.3,0.2-0.5,0.2h-6v3.6h4.3c0.2,0,0.4,0.1,0.5,0.2 c0.1,0.1,0.2,0.3,0.2,0.5c0,0.2-0.1,0.4-0.2,0.5c-0.2,0.1-0.3,0.2-0.5,0.2h-4.3v3.7h6c0.2,0,0.4,0.1,0.5,0.2 c0.1,0.1,0.2,0.3,0.2,0.5c0,0.2-0.1,0.4-0.2,0.5c-0.1,0.1-0.3,0.2-0.5,0.2h-6.8C364.6,107.9,364.4,107.8,364.2,107.6z M367.8,94.7 c-0.1-0.1-0.2-0.3-0.2-0.5c0-0.2,0.1-0.4,0.2-0.5l1.5-1.5c0.3-0.3,0.8-0.3,1.1,0c0.1,0.2,0.2,0.4,0.2,0.6c0,0.2-0.1,0.4-0.2,0.5 l-1.4,1.5c-0.1,0.1-0.3,0.2-0.5,0.2C368.2,94.9,368,94.8,367.8,94.7L367.8,94.7z"></path> <path class="st1" d="M385.2,107.2c0,0.2-0.1,0.4-0.2,0.5c-0.1,0.1-0.3,0.2-0.5,0.2c-0.3,0-0.5-0.1-0.7-0.4l-2.6-4.1H379v3.7 c0,0.4-0.3,0.8-0.8,0.8c0,0,0,0,0,0c-0.2,0-0.4-0.1-0.5-0.2c-0.1-0.1-0.2-0.3-0.2-0.5V97c0-0.2,0.1-0.4,0.2-0.6 c0.1-0.1,0.3-0.2,0.5-0.2h2.7c0.7,0,1.4,0.1,2,0.5c0.6,0.3,1,0.7,1.4,1.3c0.3,0.6,0.5,1.2,0.5,1.9c0,1.3-0.8,2.6-2,3.1l2.3,3.7 C385.1,106.8,385.2,107,385.2,107.2z M380.9,101.9c0.6,0,1.2-0.2,1.7-0.6c0.4-0.4,0.7-0.9,0.7-1.5c0-0.6-0.2-1.2-0.7-1.6 c-0.5-0.4-1.1-0.6-1.7-0.6H379v4.3H380.9z"></path> <path class="st1" d="M390.1,107.6c-0.1-0.1-0.2-0.3-0.2-0.5V97c0-0.4,0.3-0.8,0.8-0.8c0,0,0,0,0,0c0.2,0,0.4,0.1,0.6,0.2 c0.1,0.1,0.2,0.4,0.2,0.6v10.1c0,0.2-0.1,0.4-0.2,0.5C390.9,107.9,390.4,107.9,390.1,107.6C390.1,107.6,390.1,107.6,390.1,107.6 L390.1,107.6z"></path> <path class="st1" d="M397.6,107.6c-0.1-0.1-0.2-0.3-0.2-0.5V97c0-0.2,0.1-0.4,0.2-0.6c0.1-0.1,0.3-0.2,0.5-0.2h6.8 c0.2,0,0.4,0.1,0.5,0.2c0.1,0.1,0.2,0.3,0.2,0.5c0,0.2-0.1,0.4-0.2,0.5c-0.1,0.1-0.3,0.2-0.5,0.2h-6v3.6h4.3c0.2,0,0.4,0.1,0.5,0.2 c0.1,0.1,0.2,0.3,0.2,0.5c0,0.2-0.1,0.4-0.2,0.5c-0.2,0.1-0.3,0.2-0.5,0.2h-4.3v3.7h6c0.2,0,0.4,0.1,0.5,0.2 c0.1,0.1,0.2,0.3,0.2,0.5c0,0.2-0.1,0.4-0.2,0.5c-0.1,0.1-0.3,0.2-0.5,0.2h-6.8C398,107.9,397.8,107.8,397.6,107.6z"></path> <path class="st1" d="M413.2,107.6c-0.7-0.3-1.3-0.8-1.7-1.5c-0.4-0.6-0.6-1.4-0.6-2.1v-7c0-0.2,0.1-0.4,0.2-0.6 c0.1-0.1,0.3-0.2,0.5-0.2c0.4,0,0.8,0.3,0.8,0.7c0,0,0,0,0,0.1v7c0,0.5,0.1,1,0.4,1.4c0.3,0.4,0.7,0.8,1.2,1 c0.5,0.2,1.1,0.4,1.7,0.4c0.6,0,1.1-0.1,1.7-0.4c0.5-0.2,0.9-0.6,1.1-1c0.3-0.4,0.4-0.9,0.4-1.4v-7c0-0.2,0.1-0.4,0.2-0.6 c0.1-0.1,0.3-0.2,0.5-0.2c0.2,0,0.4,0.1,0.5,0.2c0.2,0.1,0.2,0.4,0.2,0.6v7c0,0.8-0.2,1.5-0.6,2.1c-0.4,0.6-1,1.1-1.7,1.5 c-0.8,0.4-1.6,0.5-2.5,0.5C414.9,108.1,414,107.9,413.2,107.6z"></path> <path class="st1" d="M434.2,107.2c0,0.2-0.1,0.4-0.2,0.5c-0.1,0.1-0.3,0.2-0.5,0.2c-0.3,0-0.5-0.1-0.7-0.4l-2.6-4.1H428v3.7 c0,0.4-0.3,0.8-0.8,0.8c0,0,0,0,0,0c-0.2,0-0.4-0.1-0.5-0.2c-0.1-0.1-0.2-0.3-0.2-0.5V97c0-0.2,0.1-0.4,0.2-0.6 c0.1-0.1,0.3-0.2,0.5-0.2h2.7c0.7,0,1.4,0.1,2,0.5c0.6,0.3,1,0.7,1.4,1.3c0.3,0.6,0.5,1.2,0.5,1.9c0,1.3-0.8,2.6-2,3.1l2.3,3.7 C434.2,106.8,434.2,107,434.2,107.2z M429.9,101.9c0.6,0,1.2-0.2,1.7-0.6c0.4-0.4,0.7-0.9,0.7-1.5c0-0.6-0.2-1.2-0.7-1.6 c-0.5-0.4-1.1-0.6-1.7-0.6H428v4.3H429.9z"></path> <path class="st1" d="M67.5,59.8h3.8c1.9,0,3.8,0,5.8,0c5.7,0,10.4-4.4,10.9-10.1c0.2-2.9-0.6-5.7-2.4-8c-2.1-2.5-5.2-4-8.5-4H37.3 v22.2L67.5,59.8L67.5,59.8z M41.1,41.6h36c2.2,0,4.2,0.9,5.6,2.6c1.2,1.5,1.7,3.4,1.5,5.3c-0.3,3.8-3.5,6.7-7.2,6.6H41.1V41.6z"></path> <path class="st1" d="M125.2,42.7c-2.9-23.6-23.6-42.2-47.1-42.4C59.4,0.2,40.7,0.1,22,0h-3.3v18.9H0v97.3h37l0,0h22.6v-9.7l0,0v-9.2 h17.8c0,0,0.7,0,1.9-0.1s2.4-0.2,3.9-0.4c2-0.2,3.9-0.6,5.8-1.1l0.6-0.1C112.9,89.2,128.1,66.7,125.2,42.7z M37.3,75.1v3.8l0,0v15 h-15V22.6l15.1-0.1c13-0.1,26.5-0.2,39.8-0.1c8.5,0.1,15.6,3.9,20.7,11.2c7.6,10.9,6.4,24.6-2.9,34.1c-4.2,4.3-9.8,6.9-15.8,7.4 l-0.5,0.1L37.3,75.1L37.3,75.1z M88.7,92h-0.2c-0.2,0-0.3,0.1-0.5,0.1c-1.8,0.5-3.5,0.8-5.3,1c-1.4,0.2-2.7,0.3-3.7,0.4 s-1.6,0.1-1.7,0.1H59.6l0,0h-3.8l0,0l0,0V96c0,2.3,0,4.6,0,6.9v9.5h-4.6l-47.5-0.1V22.7h14.9v75h22.5V78.9h38l0.5-0.1 c6.9-0.5,13.3-3.5,18.2-8.4c10.7-10.8,12-26.4,3.3-38.9c-5.8-8.3-14-12.7-23.8-12.8c-13.4-0.1-26.9,0-39.9,0.1l-15.1,0.1V3.8h1.1 C41.7,3.9,59.9,4,78.1,4.1c21.7,0.2,40.7,17.3,43.4,39C124.1,65.3,110.2,86.1,88.7,92z"></path> </svg> 