<?xml version="1.0" encoding="UTF-8"?> <svg xmlns="http://www.w3.org/2000/svg" id="Layer_1" data-name="Layer 1" viewBox="0 0 125.54 116.3"><defs><style>.cls-1{fill:#fff;}</style></defs><path class="cls-1" d="M166.58,284.47l3.78,0c1.9,0,3.79,0,5.81,0a11,11,0,0,0,10.9-10.13,11.55,11.55,0,0,0-2.37-8,11.25,11.25,0,0,0-8.54-4H136.41V284.5l30.2,0Zm-26.41-18.26h36a7.41,7.41,0,0,1,5.63,2.58,7.7,7.7,0,0,1,1.53,5.32,7.2,7.2,0,0,1-7.23,6.63H140.17Z" transform="translate(-99.07 -224.64)"></path><path class="cls-1" d="M224.25,267.35C221.38,243.8,200.7,225.2,177.18,225q-28.06-.24-56.13-.34l-3.34,0v18.9H99.07v97.31l37,0v0h22.64v-9.68h0v-9.19h17.76s.72,0,1.87-.1,2.4-.19,3.93-.39a42.9,42.9,0,0,0,5.84-1.11l.6-.12A48.88,48.88,0,0,0,224.25,267.35ZM136.4,299.74v3.76h0v15h-15V247.24l15.13-.08c13-.11,26.47-.22,39.84-.08,8.49.08,15.65,3.94,20.7,11.15,7.63,10.9,6.45,24.6-2.93,34.09a24.83,24.83,0,0,1-15.75,7.35l-.47.07H136.4Zm51.39,16.94-.17,0a4.64,4.64,0,0,0-.51.11,40,40,0,0,1-5.33,1c-1.44.19-2.74.3-3.71.36s-1.58.09-1.68.09H158.7v0h-3.77v0h0v2.44c0,2.29,0,4.58,0,6.87v9.54H150.3l-47.47-.07V247.3h14.86v75h22.47V303.5h38l.53-.07A28.47,28.47,0,0,0,196.87,295c10.71-10.81,12-26.44,3.34-38.89-5.77-8.25-14-12.66-23.75-12.76-13.35-.13-26.85,0-39.9.09l-15.08.08V228.42h1.09q27.28.13,54.57.33c21.67.18,40.73,17.33,43.38,39.05A45.07,45.07,0,0,1,187.79,316.68Z" transform="translate(-99.07 -224.64)"></path></svg> 