<?xml version="1.0" encoding="UTF-8"?> <!-- Generator: Adobe Illustrator 25.2.1, SVG Export Plug-In . SVG Version: 6.00 Build 0) --> <svg xmlns="http://www.w3.org/2000/svg" xmlns:xlink="http://www.w3.org/1999/xlink" version="1.1" id="Capa_1" x="0px" y="0px" viewBox="0 0 512 512" style="enable-background:new 0 0 512 512;" xml:space="preserve"> <style type="text/css"> .st0{fill:#FFFFFF;} </style> <path class="st0" d="M497,361h-33.2c-1.6-2.4-0.5-1.2-25.9-23.6l18.1-80.5c6.7-29.6-12-59.1-41.6-65.7l-19.5-4.4l33.2-147.3 c15.9,3.6,15.7,3.7,17.9,3.7c6.9,0,13-4.7,14.6-11.7c1.8-8.1-3.3-16.1-11.3-17.9L390.9,0.4c-8.1-1.8-16.1,3.3-17.9,11.3 s3.3,16.1,11.3,17.9l14.6,3.3l-33.2,147.3l-19.5-4.4c-29.7-6.7-59.1,11.9-65.7,41.6l-16.2,71.9c-9.4,5.1-19.9,7.2-30.3,6.4 l24.3-121.5h2.7c8.3,0,15-6.7,15-15c0-8-6.3-15-15.2-15C257.2,89.4,211.6,46,156,46S54.8,89.4,51.2,144.2c-19.3,0-21.9,30,2,30 L76.1,315C38,363.3,40.6,360,40,361H15c-8.3,0-15,6.7-15,15v121c0,8.3,6.7,15,15,15h482c8.3,0,15-6.7,15-15V376 C512,367.7,505.3,361,497,361L497,361z M309.7,224c3-13.5,16.4-21.9,29.9-18.9l68.3,15.4c13.4,3,21.9,16.4,18.9,29.9l-14.5,64.4 l-35.5-31.3c-21.4-18.9-51.1-24-77.1-14.7L309.7,224z M156,76c39,0,71.2,30,74.7,68.2H81.3C84.8,106,117,76,156,76z M227.7,174.2 l-22.3,111.4c-16.5-9.4-36.7-23.8-68.5-17.6c-13.1,2.6-25.3,8.5-35.3,17l-18-110.9H227.7z M114.6,314.5c28.3-36,66.9-8.1,81,0 c27.8,15.9,61.4,15,88.3-2c5.6-2.7,39.8-35.7,72.9-6.5l62.4,55H78.1L114.6,314.5z M482,482H30v-91h452V482z"></path> </svg> 